<svg xmlns="http://www.w3.org/2000/svg" viewBox="0 0 1354 268.75"><defs><style>.cls-1{fill:#5e83b7;}.cls-2{fill:#425c7c;}</style></defs><g id="Layer_3" data-name="Layer 3"><path class="cls-1" d="M12,379H55.86V361.62L69,359h5.48v-3.47l5-2v-3h8.12v-7.58l3.88-.39v-5.16h2.69v-52l48.31,7.21V248.92l12-2.42v-9.21H172l37.5,3.21v8.42l9,.58v-6.65l3-.35V189.8s22.42-6.7,66.71,0v21.73l13.29,11,5,1v15.31l8,1.69v24.58l11,1.42,3,20h6l3-20,4-1V259l4-1.52V254l54,1.53,15,3v66.21l3-.21V264.58l6-1.08V253l65-2.46,13,3v9.06l5,.94V228.2l55-4.7,33,3v50.71l5,.29v-22l19,0V242.35l35,.15,15,4V379h2.7v-3.26l3.3-.24v-2.79l13-.21V379h4.92V254l53.08-4.47,31,2v21.16s49-4.16,53,3.84v11.83l4,.17V214.56l5-.06V211l63-3.52v9.08l15,2.92v133h14V278.22l21-1.72V252l10-5.45,18-5V230.73l16-8.23,58-5V194.85l2,2.65,15-2,18,2v21.1l30,3.9h9l15,2v61.81l40,.19V245.88l36-6.38,64,4v73.12l12,3.88v7.24l4,.76v41.68l7,.32v-14l3,0v-9.06s31-3.94,37,.06v11.56l13,.44v6.13l7.5-.5v90.44H12Z" transform="translate(-12 -186.82)"/><path class="cls-2" d="M12,403l27,0,7,4H86.11L86,392h5.16l.34-5.5h2.18s-3.18-8,22.82-6v-27h26.7V429.8h3.54V419.19l51.76-.69,8-7,47,1v-2.41l12,.41v4.14l39,.86,20-6,11,9v11.3h37.09l4.91,2.7,11-7h5v-74h2.84V338.85h3.53V326.73H469.6v10.61l4.9.16v38.74l4-.74v-2.79l8-2.21v-7.39l10-.61V317.63h18.07l2.93-4.13h32.44v3.12s33.09-.73,31.32,4.58l.07,66.66,11-3.86,12.12,3.5L607,384h3.54l-.07,7.5,22,1v-2.62l60,.62v-86l5-13,4-9V259l-4,.48-1.19-5.86h5.19v-9.27H704L715.5,207.5l12,33,4,2v39.26l8,21.74v29.79l17,.21,19,16v12.59l12,1.41v45.58l10,.42,6-12,3-1v-8.13l5-.87v-8.23l18,.23v6.85l19,.15v-5.21l6,.21v-4.25l68-.75,28,1v10.36l74,.64V358.56l27-.06V353l20-.5v5.55l57,1.45v18.26l10,9.74,22,1V384l9-9.5,9-1,6,6v9.37l66,.63v6.95l4,.05V381.8l34-.3,8-1h61V384h8.5v71.57H12Z" transform="translate(-12 -186.82)"/></g></svg>