<?xml version="1.0" encoding="UTF-8"?><svg id="Layer_1" xmlns="http://www.w3.org/2000/svg" viewBox="0 0 187.55 66.76"><path d="M6.66,7.63v1.01L0,5.61v-.83L6.66,1.75v1.01L1.35,5.2l5.31,2.44Z"/><path d="M9.89,4.66v2.58c0,1.24,.04,1.93,.11,2.07s.29,.22,.67,.22h.58v.38c-.73-.03-1.24-.05-1.56-.05l-2.1,.05v-.38h.44c.34,0,.55-.07,.61-.21,.08-.18,.13-.88,.13-2.08v-2.58l-.95,.06v-.28c.31-.15,.63-.31,.95-.49v-.84c0-.43,.06-.78,.18-1.05s.35-.59,.71-.95c.47-.49,.83-.81,1.09-.96,.17-.1,.39-.15,.65-.15,.17,0,.36,.03,.58,.09-.01,.23-.02,.41-.02,.54s0,.32,.02,.56l-.17,.07c-.26-.23-.56-.34-.89-.34-.37,0-.63,.13-.79,.38-.16,.25-.23,.87-.23,1.84v.88c.71,0,1.3-.03,1.75-.07l.05,.07-.11,.63-.81-.02c-.2,0-.49,0-.88,.02Z"/><path d="M12.43,6.73c0-.61,.14-1.16,.42-1.65,.28-.49,.68-.88,1.19-1.16,.51-.28,1.09-.42,1.74-.42,.94,0,1.69,.28,2.26,.83s.85,1.3,.85,2.22c0,1.09-.37,1.96-1.1,2.61-.66,.58-1.45,.87-2.36,.87s-1.6-.3-2.15-.89c-.55-.59-.83-1.4-.83-2.42Zm1.24-.47c0,.91,.19,1.69,.56,2.34,.37,.65,.91,.97,1.61,.97,.53,0,.96-.2,1.29-.61,.33-.41,.49-1.02,.49-1.85,0-.67-.1-1.25-.29-1.73-.19-.49-.45-.84-.77-1.07-.32-.22-.67-.33-1.07-.33-.35,0-.66,.09-.94,.27s-.49,.41-.62,.71c-.18,.4-.27,.84-.27,1.31Z"/><path d="M19.83,6.73c0-.61,.14-1.16,.42-1.65,.28-.49,.68-.88,1.19-1.16,.51-.28,1.09-.42,1.74-.42,.94,0,1.69,.28,2.26,.83s.85,1.3,.85,2.22c0,1.09-.37,1.96-1.1,2.61-.66,.58-1.45,.87-2.36,.87s-1.6-.3-2.15-.89c-.55-.59-.83-1.4-.83-2.42Zm1.24-.47c0,.91,.19,1.69,.56,2.34,.37,.65,.91,.97,1.61,.97,.53,0,.96-.2,1.29-.61,.33-.41,.49-1.02,.49-1.85,0-.67-.1-1.25-.29-1.73-.19-.49-.45-.84-.77-1.07-.32-.22-.67-.33-1.07-.33-.35,0-.66,.09-.94,.27s-.49,.41-.62,.71c-.18,.4-.27,.84-.27,1.31Z"/><path d="M29.21,4.71v2.6c0,.68,.02,1.11,.07,1.3,.04,.19,.13,.34,.27,.44,.13,.11,.31,.16,.51,.16,.13,0,.25-.03,.37-.08,.12-.05,.24-.13,.36-.23l.19,.23-.65,.76c-.14,.05-.28,.09-.41,.11-.13,.03-.26,.04-.39,.04-.33,0-.6-.06-.83-.18-.23-.12-.39-.27-.49-.46s-.15-.47-.15-.85l.03-1.28v-2.51c-.34,0-.69,.02-1.05,.05v-.28c.38-.15,.73-.3,1.05-.46,0-.63-.02-1.31-.05-2.05,.51-.22,.88-.39,1.11-.52l.17,.13c-.04,.34-.07,1.16-.11,2.44,.54,0,.98,0,1.32-.02l.53-.03-.07,.68h-1.77Z"/><path d="M32.81,6.7c.02,.87,.24,1.53,.67,1.98s.98,.67,1.67,.67c.31,0,.61-.05,.92-.15,.3-.1,.61-.25,.91-.46l.11,.1-.21,.56c-.37,.21-.74,.37-1.13,.48-.39,.11-.79,.16-1.2,.16-.9,0-1.62-.28-2.17-.85-.55-.57-.82-1.34-.82-2.31,0-.74,.15-1.38,.46-1.93,.2-.36,.58-.69,1.13-.99,.55-.3,1.08-.46,1.59-.46,.78,0,1.4,.23,1.86,.69s.69,1.1,.69,1.93v.39c-.3,.07-.58,.12-.85,.14-.47,.04-1.13,.05-1.96,.05h-1.65Zm.01-.5c.68,.03,1.44,.05,2.26,.05,.33,0,.65-.02,.96-.05v-.37c0-.39-.08-.76-.23-1.11-.1-.22-.27-.4-.51-.54-.24-.14-.52-.21-.84-.21-.49,0-.89,.18-1.18,.54-.3,.36-.45,.92-.46,1.69Z"/><path d="M40.17,5.01c.18-.17,.37-.39,.58-.66,.25-.32,.48-.54,.69-.66,.21-.12,.44-.18,.67-.18s.43,.03,.56,.09c.06,.03,.09,.07,.09,.13v.07c-.08,.36-.12,.86-.13,1.5h-.3c-.1-.22-.22-.38-.36-.48s-.3-.14-.5-.14c-.26,0-.5,.09-.72,.26-.22,.18-.37,.42-.45,.74-.07,.32-.11,.94-.11,1.87,0,.61,.02,1.13,.07,1.55,.02,.15,.06,.25,.13,.29,.17,.09,.42,.14,.74,.14h.4v.38c-.68-.03-1.31-.05-1.92-.05s-1.17,.02-1.74,.05v-.38l.64-.05c.23-.02,.37-.06,.43-.13,.06-.07,.1-.28,.12-.64,.03-.64,.05-1.39,.05-2.26,0-1.06-.04-1.69-.13-1.87-.06-.12-.24-.18-.54-.18h-.56v-.38c.43-.05,.81-.11,1.15-.19s.63-.17,.89-.29c.06-.03,.11-.05,.15-.05,.05,0,.08,.01,.1,.04s.03,.09,.03,.18l-.03,1.32Z"/><path d="M51.77,8.97l.18,.16-.27,.42c-.3,.16-.61,.29-.93,.37-.32,.08-.64,.12-.97,.12-.65,0-1.2-.12-1.65-.37s-.8-.6-1.05-1.07-.37-1.02-.37-1.67c0-.57,.09-1.06,.28-1.49,.19-.42,.46-.75,.8-.99s.77-.47,1.28-.7c.36-.16,.77-.25,1.21-.25,.34,0,.63,.03,.88,.08s.51,.15,.79,.3c-.11,.58-.17,1.17-.18,1.75h-.42v-.33c0-.28-.04-.48-.12-.6s-.27-.23-.56-.35c-.29-.11-.61-.17-.95-.17-.6,0-1.05,.18-1.38,.55-.32,.36-.48,.91-.48,1.63,0,.93,.24,1.67,.71,2.23,.43,.51,.98,.76,1.65,.76,.26,0,.52-.03,.78-.1,.26-.07,.51-.16,.76-.29Z"/><path d="M55.06,.08c-.08,1.29-.11,2.46-.11,3.51v3.4c0,1.35,.03,2.12,.09,2.3,.03,.09,.18,.15,.44,.18l.56,.06v.38c-.48-.03-.94-.05-1.38-.05-.49,0-1.12,.02-1.91,.05v-.38l.57-.05c.25-.02,.39-.09,.43-.19,.06-.17,.09-.96,.09-2.35V2.28l-.03-.87c0-.22-.02-.35-.07-.4-.07-.07-.22-.11-.44-.11h-.54v-.4c.92-.08,1.65-.26,2.2-.52l.11,.08Z"/><path d="M57.31,5.31v-.9l.72-.41c.33-.19,.61-.31,.86-.38,.24-.07,.51-.11,.78-.11,.61,0,1.1,.14,1.47,.41,.37,.27,.6,.62,.67,1.04,.05,.32,.09,1.1,.1,2.36,0,1.19,.04,1.84,.08,1.96,.04,.12,.15,.18,.33,.18h.52v.44c-.5-.03-.85-.05-1.05-.05-.25,0-.58,.02-.99,.05v-.59c0-.19,0-.38,0-.58l-1.37,1.04c-.12,.09-.25,.16-.36,.19-.12,.04-.28,.06-.5,.06-.57,0-1-.14-1.3-.42-.3-.28-.45-.66-.45-1.13,0-.45,.11-.83,.32-1.17,.21-.33,.52-.58,.91-.74,.4-.16,1.31-.37,2.75-.62,0-.56-.13-.98-.37-1.26-.3-.35-.73-.52-1.28-.52-.21,0-.41,.03-.6,.08-.19,.05-.36,.13-.52,.23-.13,.32-.25,.62-.35,.91l-.37-.1Zm3.49,1.05c-1.23,.26-2.01,.51-2.34,.74-.33,.23-.5,.59-.5,1.07,0,.33,.09,.59,.28,.78,.19,.2,.43,.29,.73,.29,.33,0,.65-.09,.95-.28,.3-.19,.59-.46,.86-.83v-1.79Z"/><path d="M64.15,7.88v.43c0,.35,.03,.56,.09,.64,.11,.14,.34,.28,.67,.41,.33,.13,.68,.2,1.03,.2,.45,0,.83-.12,1.11-.37,.29-.25,.43-.54,.43-.88,0-.27-.08-.49-.25-.65-.17-.16-.49-.29-.96-.39-.88-.18-1.46-.33-1.74-.46-.28-.13-.49-.31-.64-.53-.14-.22-.21-.49-.21-.8,0-.59,.21-1.06,.64-1.43,.43-.37,1.03-.55,1.81-.55,.62,0,1.24,.12,1.85,.37-.04,.3-.07,.8-.09,1.51h-.4c0-.39-.05-.64-.13-.77-.1-.16-.29-.31-.55-.44-.27-.13-.55-.2-.86-.2-.4,0-.72,.1-.96,.31-.24,.21-.36,.46-.36,.77s.09,.52,.28,.67c.19,.16,.71,.32,1.58,.49,.64,.13,1.05,.25,1.26,.36s.37,.28,.49,.5c.12,.23,.19,.48,.19,.77,0,.59-.25,1.11-.76,1.54-.51,.43-1.19,.65-2.04,.65-.54,0-1.15-.08-1.83-.25-.12-.03-.18-.08-.18-.14l.02-.09c.02-.07,.03-.18,.05-.35,.04-.43,.06-.76,.06-1v-.32h.4Z"/><path d="M69.89,7.88v.43c0,.35,.03,.56,.09,.64,.11,.14,.34,.28,.67,.41,.33,.13,.68,.2,1.03,.2,.45,0,.83-.12,1.11-.37,.29-.25,.43-.54,.43-.88,0-.27-.08-.49-.25-.65-.17-.16-.49-.29-.96-.39-.88-.18-1.46-.33-1.74-.46-.28-.13-.49-.31-.64-.53-.14-.22-.21-.49-.21-.8,0-.59,.21-1.06,.64-1.43,.43-.37,1.03-.55,1.81-.55,.62,0,1.24,.12,1.85,.37-.04,.3-.07,.8-.09,1.51h-.4c0-.39-.05-.64-.13-.77-.1-.16-.29-.31-.55-.44-.27-.13-.55-.2-.86-.2-.4,0-.72,.1-.96,.31-.24,.21-.36,.46-.36,.77s.09,.52,.28,.67c.19,.16,.71,.32,1.58,.49,.64,.13,1.05,.25,1.26,.36s.37,.28,.49,.5c.12,.23,.19,.48,.19,.77,0,.59-.25,1.11-.76,1.54-.51,.43-1.19,.65-2.04,.65-.54,0-1.15-.08-1.83-.25-.12-.03-.18-.08-.18-.14l.02-.09c.02-.07,.03-.18,.05-.35,.04-.43,.06-.76,.06-1v-.32h.4Z"/><path d="M75.41,4.53v-.92h6.66v.92h-6.66Zm0,2.26v-.92h6.66v.92h-6.66Z"/><path d="M84.05,4.36l-.19-2.97c-.01-.18-.02-.32-.02-.43,0-.19,.04-.34,.13-.45,.09-.1,.19-.16,.31-.16s.23,.05,.32,.15c.08,.1,.13,.25,.13,.46,0,.1,0,.24-.01,.42l-.2,2.97c-.01,.19-.09,.28-.24,.28-.14,0-.21-.09-.23-.28Zm2.16,0l-.2-2.97c-.01-.18-.02-.32-.02-.43,0-.19,.04-.34,.13-.45,.09-.1,.19-.16,.31-.16s.23,.05,.32,.15,.13,.25,.13,.46c0,.1,0,.24-.02,.42l-.19,2.97c-.01,.19-.09,.28-.24,.28s-.22-.09-.23-.28Z"/><path d="M90.44,4.84l.93-.82c.23-.21,.43-.34,.59-.39,.26-.08,.56-.13,.91-.13,.78,0,1.42,.24,1.9,.73,.48,.49,.73,1.11,.73,1.88,0,.38-.06,.76-.17,1.13-.11,.37-.24,.68-.4,.91-.16,.24-.34,.43-.54,.59-.07,.05-.33,.23-.81,.52l-.26,.19c-.33,.23-.6,.39-.81,.46-.21,.07-.44,.11-.7,.11-.21,0-.43-.03-.65-.09-.23-.06-.47-.15-.72-.26v.93c0,.96,.01,1.63,.04,2.03,.01,.17,.07,.3,.17,.37s.3,.12,.62,.12h.36v.37c-.84-.03-1.45-.05-1.84-.05-.43,0-.97,.01-1.64,.05v-.37h.48c.34,0,.54-.07,.6-.22,.06-.15,.09-.92,.09-2.33V6.53c0-.71-.02-1.25-.05-1.63-.02-.18-.06-.31-.13-.37-.07-.06-.23-.09-.48-.09h-.52v-.41c.61-.07,1.22-.19,1.81-.38l.4-.16c.07,0,.11,.06,.11,.19l-.02,.7v.47Zm0,3.64c.28,.32,.56,.54,.85,.68,.28,.13,.59,.2,.91,.2,.7,0,1.23-.26,1.6-.79,.37-.52,.55-1.15,.55-1.87,0-.49-.08-.9-.25-1.25-.17-.35-.42-.62-.74-.81-.33-.2-.68-.29-1.05-.29-.26,0-.52,.05-.78,.16-.25,.11-.47,.25-.66,.44s-.31,.36-.36,.52c-.04,.12-.06,.43-.06,.95v2.08Z"/><path d="M96.97,5.31v-.9l.72-.41c.33-.19,.61-.31,.86-.38,.24-.07,.51-.11,.78-.11,.61,0,1.1,.14,1.47,.41,.37,.27,.6,.62,.67,1.04,.05,.32,.09,1.1,.1,2.36,0,1.19,.04,1.84,.08,1.96,.04,.12,.15,.18,.33,.18h.52v.44c-.5-.03-.85-.05-1.05-.05-.25,0-.58,.02-.99,.05v-.59c0-.19,0-.38,0-.58l-1.37,1.04c-.12,.09-.25,.16-.36,.19-.12,.04-.28,.06-.5,.06-.57,0-1-.14-1.3-.42-.3-.28-.45-.66-.45-1.13,0-.45,.11-.83,.32-1.17,.21-.33,.52-.58,.91-.74,.4-.16,1.31-.37,2.75-.62,0-.56-.13-.98-.37-1.26-.3-.35-.73-.52-1.28-.52-.21,0-.41,.03-.6,.08-.19,.05-.36,.13-.52,.23-.13,.32-.25,.62-.35,.91l-.37-.1Zm3.49,1.05c-1.23,.26-2.01,.51-2.34,.74-.33,.23-.5,.59-.5,1.07,0,.33,.09,.59,.28,.78,.19,.2,.43,.29,.73,.29,.33,0,.65-.09,.95-.28,.3-.19,.59-.46,.86-.83v-1.79Z"/><path d="M108.72,4.74c.1,.28,.15,.51,.15,.7,0,.39-.12,.77-.36,1.14-.24,.36-.58,.66-1.02,.88-.44,.22-.92,.33-1.43,.33h-.31c-.29,.21-.47,.37-.55,.47s-.12,.21-.12,.31c0,.17,.09,.3,.26,.4,.17,.1,.52,.14,1.05,.14,.2,0,.49,0,.87-.02,.54-.02,.94-.04,1.18-.04,.35,0,.62,.06,.8,.17,.19,.11,.34,.31,.48,.59,.13,.28,.2,.6,.2,.95,0,.5-.15,.97-.45,1.42-.3,.45-.74,.82-1.31,1.09-.57,.27-1.23,.41-1.98,.41-.91,0-1.61-.2-2.1-.59-.49-.4-.73-.88-.73-1.46,0-.36,.13-.72,.38-1.08,.46-.22,.84-.43,1.16-.66-.36-.12-.59-.23-.7-.33-.1-.1-.16-.22-.16-.38,0-.18,.05-.37,.15-.55,.06-.11,.2-.24,.44-.4l.64-.46c-.53-.13-.91-.32-1.14-.56-.31-.33-.46-.74-.46-1.25,0-.45,.11-.85,.34-1.22,.23-.37,.57-.66,1.01-.87,.57-.27,1.12-.4,1.65-.4,.34,0,.63,.04,.88,.13,.25,.09,.51,.24,.78,.45h.56c.57,0,1.02-.02,1.34-.06l.07,.14c-.13,.19-.25,.39-.35,.6h-1.22Zm-2.81,5.26c-.31,0-.53,.04-.64,.11-.37,.24-.59,.43-.67,.58-.13,.23-.2,.52-.2,.87,0,.48,.18,.88,.54,1.19,.36,.31,.85,.47,1.49,.47,.49,0,.92-.09,1.29-.27,.37-.18,.66-.43,.86-.75,.2-.32,.31-.64,.31-.98,0-.29-.07-.54-.21-.76s-.31-.36-.51-.42c-.1-.03-.33-.05-.69-.05h-1.55Zm1.81-4.21c0-.55-.14-1-.42-1.34-.28-.34-.64-.5-1.07-.5s-.77,.14-1.02,.41c-.26,.27-.39,.66-.39,1.14,0,.59,.14,1.05,.42,1.39,.28,.33,.63,.5,1.06,.5s.77-.14,1.03-.42,.39-.67,.39-1.18Z"/><path d="M111.98,6.7c.02,.87,.24,1.53,.67,1.98s.98,.67,1.67,.67c.31,0,.61-.05,.92-.15,.3-.1,.61-.25,.91-.46l.11,.1-.21,.56c-.37,.21-.74,.37-1.13,.48-.39,.11-.79,.16-1.2,.16-.9,0-1.62-.28-2.17-.85-.55-.57-.82-1.34-.82-2.31,0-.74,.15-1.38,.46-1.93,.2-.36,.58-.69,1.13-.99,.55-.3,1.08-.46,1.59-.46,.78,0,1.4,.23,1.86,.69s.69,1.1,.69,1.93v.39c-.3,.07-.58,.12-.85,.14-.47,.04-1.13,.05-1.96,.05h-1.65Zm.01-.5c.68,.03,1.44,.05,2.26,.05,.33,0,.65-.02,.96-.05v-.37c0-.39-.08-.76-.23-1.11-.1-.22-.27-.4-.51-.54-.24-.14-.52-.21-.84-.21-.49,0-.89,.18-1.18,.54-.3,.36-.45,.92-.46,1.69Z"/><path d="M117.2,7.22l-.09-.09c.13-.33,.24-.66,.34-.96,.64,.03,1.18,.05,1.61,.05,.35,0,1-.02,1.95-.05l.05,.1c-.15,.33-.25,.65-.32,.95-.6-.04-1.16-.06-1.67-.06-.57,0-1.19,.02-1.87,.06Z"/><path d="M123.79,4.66v2.58c0,1.24,.04,1.93,.11,2.07s.29,.22,.67,.22h.58v.38c-.73-.03-1.24-.05-1.56-.05l-2.1,.05v-.38h.44c.34,0,.55-.07,.61-.21,.08-.18,.13-.88,.13-2.08v-2.58l-.95,.06v-.28c.31-.15,.63-.31,.95-.49v-.84c0-.43,.06-.78,.18-1.05s.35-.59,.71-.95c.47-.49,.83-.81,1.09-.96,.17-.1,.39-.15,.65-.15,.17,0,.36,.03,.58,.09-.01,.23-.02,.41-.02,.54s0,.32,.02,.56l-.17,.07c-.26-.23-.56-.34-.89-.34-.37,0-.63,.13-.79,.38-.16,.25-.23,.87-.23,1.84v.88c.71,0,1.3-.03,1.75-.07l.05,.07-.11,.63-.81-.02c-.2,0-.49,0-.88,.02Z"/><path d="M126.33,6.73c0-.61,.14-1.16,.42-1.65,.28-.49,.68-.88,1.19-1.16,.51-.28,1.09-.42,1.74-.42,.94,0,1.69,.28,2.26,.83s.85,1.3,.85,2.22c0,1.09-.37,1.96-1.1,2.61-.66,.58-1.45,.87-2.36,.87s-1.6-.3-2.15-.89c-.55-.59-.83-1.4-.83-2.42Zm1.24-.47c0,.91,.19,1.69,.56,2.34,.37,.65,.91,.97,1.61,.97,.53,0,.96-.2,1.29-.61,.33-.41,.49-1.02,.49-1.85,0-.67-.1-1.25-.29-1.73-.19-.49-.45-.84-.77-1.07-.32-.22-.67-.33-1.07-.33-.35,0-.66,.09-.94,.27s-.49,.41-.62,.71c-.18,.4-.27,.84-.27,1.31Z"/><path d="M133.73,6.73c0-.61,.14-1.16,.42-1.65,.28-.49,.68-.88,1.19-1.16,.51-.28,1.09-.42,1.74-.42,.94,0,1.69,.28,2.26,.83s.85,1.3,.85,2.22c0,1.09-.37,1.96-1.1,2.61-.66,.58-1.45,.87-2.36,.87s-1.6-.3-2.15-.89c-.55-.59-.83-1.4-.83-2.42Zm1.24-.47c0,.91,.19,1.69,.56,2.34,.37,.65,.91,.97,1.61,.97,.53,0,.96-.2,1.29-.61,.33-.41,.49-1.02,.49-1.85,0-.67-.1-1.25-.29-1.73-.19-.49-.45-.84-.77-1.07-.32-.22-.67-.33-1.07-.33-.35,0-.66,.09-.94,.27s-.49,.41-.62,.71c-.18,.4-.27,.84-.27,1.31Z"/><path d="M143.12,4.71v2.6c0,.68,.02,1.11,.07,1.3,.04,.19,.13,.34,.27,.44,.13,.11,.31,.16,.51,.16,.13,0,.25-.03,.37-.08,.12-.05,.24-.13,.36-.23l.19,.23-.65,.76c-.14,.05-.28,.09-.41,.11-.13,.03-.26,.04-.39,.04-.33,0-.6-.06-.83-.18-.23-.12-.39-.27-.49-.46s-.15-.47-.15-.85l.03-1.28v-2.51c-.34,0-.69,.02-1.05,.05v-.28c.38-.15,.73-.3,1.05-.46,0-.63-.02-1.31-.05-2.05,.51-.22,.88-.39,1.11-.52l.17,.13c-.04,.34-.07,1.16-.11,2.44,.54,0,.98,0,1.32-.02l.53-.03-.07,.68h-1.77Z"/><path d="M146.72,6.7c.02,.87,.24,1.53,.67,1.98s.98,.67,1.67,.67c.31,0,.62-.05,.92-.15s.61-.25,.91-.46l.11,.1-.21,.56c-.37,.21-.74,.37-1.13,.48-.39,.11-.79,.16-1.2,.16-.9,0-1.62-.28-2.17-.85-.55-.57-.82-1.34-.82-2.31,0-.74,.15-1.38,.46-1.93,.2-.36,.58-.69,1.13-.99,.55-.3,1.08-.46,1.59-.46,.78,0,1.4,.23,1.86,.69s.69,1.1,.69,1.93v.39c-.3,.07-.58,.12-.85,.14-.47,.04-1.13,.05-1.96,.05h-1.65Zm.01-.5c.68,.03,1.44,.05,2.26,.05,.33,0,.65-.02,.96-.05v-.37c0-.39-.08-.76-.23-1.11-.1-.22-.27-.4-.51-.54-.24-.14-.52-.21-.84-.21-.49,0-.89,.18-1.18,.54-.3,.36-.45,.92-.46,1.69Z"/><path d="M154.08,5.01c.18-.17,.37-.39,.58-.66,.25-.32,.48-.54,.69-.66s.44-.18,.67-.18,.43,.03,.56,.09c.06,.03,.09,.07,.09,.13v.07c-.08,.36-.12,.86-.13,1.5h-.3c-.1-.22-.22-.38-.36-.48s-.3-.14-.5-.14c-.26,0-.5,.09-.72,.26-.22,.18-.37,.42-.45,.74-.08,.32-.11,.94-.11,1.87,0,.61,.03,1.13,.07,1.55,.02,.15,.06,.25,.13,.29,.17,.09,.42,.14,.74,.14h.4v.38c-.67-.03-1.31-.05-1.92-.05s-1.17,.02-1.74,.05v-.38l.64-.05c.23-.02,.37-.06,.43-.13,.06-.07,.1-.28,.12-.64,.03-.64,.05-1.39,.05-2.26,0-1.06-.04-1.69-.12-1.87-.06-.12-.24-.18-.54-.18h-.56v-.38c.43-.05,.81-.11,1.15-.19s.63-.17,.89-.29c.06-.03,.11-.05,.15-.05,.05,0,.08,.01,.1,.04s.03,.09,.03,.18l-.03,1.32Z"/><path d="M158.13,4.36l-.19-2.97c-.01-.18-.02-.32-.02-.43,0-.19,.04-.34,.13-.45,.09-.1,.19-.16,.31-.16s.23,.05,.32,.15c.08,.1,.12,.25,.12,.46,0,.1,0,.24-.01,.42l-.2,2.97c-.01,.19-.09,.28-.24,.28s-.21-.09-.23-.28Zm2.16,0l-.2-2.97c-.01-.18-.02-.32-.02-.43,0-.19,.04-.34,.13-.45,.09-.1,.19-.16,.31-.16s.23,.05,.32,.15,.13,.25,.13,.46c0,.1,0,.24-.02,.42l-.19,2.97c-.01,.19-.09,.28-.24,.28s-.22-.09-.23-.28Z"/><path d="M162.73,7.63l5.31-2.44-5.31-2.43V1.75l6.67,3.03v.83l-6.67,3.03v-1.01Z"/><path d="M33.77,25.63v1.01l-6.66-3.03v-.83l6.66-3.03v1.01l-5.31,2.43,5.31,2.44Z"/><path d="M40.19,21.91v-2.4c0-.28-.03-.45-.09-.52-.06-.07-.2-.11-.42-.11h-.57v-.4c.79-.05,1.52-.21,2.2-.48l.12,.08c-.03,.45-.06,.99-.08,1.63l-.03,1.76v4.52c-.01,.74,0,1.15,.05,1.23,.07,.12,.25,.2,.55,.24l.47,.06v.38c-.54-.04-1.02-.06-1.44-.06-.08,0-.35,.02-.84,.06,.03-.3,.06-.72,.07-1.27-.38,.29-.85,.7-1.43,1.22-.37,.12-.71,.18-.99,.18-.74,0-1.37-.28-1.87-.84-.5-.56-.75-1.31-.75-2.25,0-.59,.1-1.09,.29-1.5,.19-.42,.43-.72,.69-.9,.27-.19,.69-.42,1.26-.71,.44-.22,.84-.32,1.21-.32,.25,0,.51,.03,.78,.1s.54,.17,.82,.3Zm0,1.14c-.3-.33-.62-.57-.95-.74-.33-.16-.67-.25-1.03-.25-.58,0-1.04,.21-1.39,.63-.35,.42-.53,1.04-.53,1.85s.2,1.47,.6,1.94c.4,.47,.89,.71,1.47,.71,.35,0,.68-.1,.97-.29s.51-.45,.65-.77c.14-.31,.21-.81,.21-1.48v-1.62Z"/><path d="M45.33,21.48l.16,.1c-.03,.33-.05,.69-.06,1.09-.03,1.29-.05,2.24-.05,2.85,0,.57,.02,1.06,.06,1.47,.02,.16,.06,.27,.13,.33,.07,.06,.23,.11,.48,.14l.45,.06v.38c-.64-.03-1.23-.05-1.76-.05s-1.05,.02-1.58,.05v-.38l.57-.06c.22-.02,.36-.06,.41-.12,.05-.06,.08-.28,.1-.64,.02-.56,.03-1.34,.03-2.32,0-.69-.01-1.21-.03-1.59,0-.14-.05-.23-.12-.29s-.22-.09-.46-.09h-.5v-.38c.54-.08,.93-.15,1.19-.21,.25-.07,.58-.18,.98-.33Zm-.53-2.93c.2,0,.38,.07,.52,.22,.15,.15,.22,.33,.22,.53s-.07,.38-.22,.53c-.15,.15-.32,.22-.52,.22s-.38-.07-.53-.22c-.15-.15-.22-.32-.22-.53s.07-.38,.22-.53c.15-.15,.32-.22,.53-.22Z"/><path d="M51.56,22.02v-.38c.45,.03,.86,.05,1.22,.05,.42,0,.86-.02,1.33-.05v.38h-.21c-.1,0-.2,.02-.3,.06-.07,.03-.13,.07-.17,.12s-.2,.36-.48,.92c-.5,1.03-.88,1.84-1.14,2.43s-.6,1.4-1.01,2.41h-.69c-.58-1.45-1.18-2.86-1.79-4.24-.23-.5-.36-.83-.41-.97-.1-.29-.21-.48-.33-.59-.12-.1-.28-.16-.47-.16h-.22v-.38c.65,.03,1.19,.05,1.62,.05,.46,0,.97-.02,1.52-.05v.38h-.29c-.27,0-.46,.03-.57,.09-.08,.04-.11,.11-.11,.2,0,.08,.04,.23,.12,.46,.08,.23,.61,1.56,1.6,4l1.19-2.86c.27-.66,.43-1.12,.5-1.38,.02-.07,.03-.13,.03-.18,0-.08-.03-.15-.09-.19-.06-.04-.21-.07-.44-.1l-.42-.05Z"/><path d="M63.18,26.97l.18,.16-.27,.42c-.3,.16-.61,.29-.93,.37-.32,.08-.64,.12-.97,.12-.65,0-1.2-.12-1.65-.37s-.8-.6-1.05-1.07-.37-1.02-.37-1.67c0-.57,.09-1.06,.28-1.49,.19-.42,.46-.75,.8-.99s.77-.47,1.28-.7c.36-.16,.77-.25,1.21-.25,.34,0,.63,.03,.88,.08s.51,.15,.79,.3c-.11,.58-.17,1.17-.18,1.75h-.42v-.33c0-.28-.04-.48-.12-.6s-.27-.23-.56-.35c-.29-.11-.61-.17-.95-.17-.6,0-1.05,.18-1.38,.55-.32,.36-.48,.91-.48,1.63,0,.93,.24,1.67,.71,2.23,.43,.51,.98,.76,1.65,.76,.26,0,.52-.03,.78-.1,.26-.07,.51-.16,.76-.29Z"/><path d="M66.47,18.08c-.08,1.29-.11,2.46-.11,3.51v3.4c0,1.35,.03,2.12,.09,2.3,.03,.09,.18,.15,.44,.18l.56,.06v.38c-.48-.03-.94-.05-1.38-.05-.49,0-1.12,.02-1.91,.05v-.38l.57-.05c.25-.02,.39-.09,.43-.19,.06-.17,.09-.96,.09-2.35v-4.65l-.03-.87c0-.22-.02-.35-.07-.4-.07-.07-.22-.11-.44-.11h-.54v-.4c.92-.08,1.65-.26,2.2-.52l.11,.08Z"/><path d="M68.72,23.31v-.9l.72-.41c.33-.19,.61-.31,.86-.38,.24-.07,.51-.11,.78-.11,.61,0,1.1,.14,1.47,.41,.37,.27,.6,.62,.67,1.04,.05,.32,.09,1.1,.1,2.36,0,1.19,.04,1.84,.08,1.96,.04,.12,.15,.18,.33,.18h.52v.44c-.5-.03-.85-.05-1.05-.05-.25,0-.58,.02-.99,.05v-.59c0-.19,0-.38,0-.58l-1.37,1.04c-.12,.09-.25,.16-.36,.19-.12,.04-.28,.06-.5,.06-.57,0-1-.14-1.3-.42-.3-.28-.45-.66-.45-1.13,0-.45,.11-.83,.32-1.17,.21-.33,.52-.58,.91-.74,.4-.16,1.31-.37,2.75-.62,0-.56-.13-.98-.37-1.26-.3-.35-.73-.52-1.28-.52-.21,0-.41,.03-.6,.08-.19,.05-.36,.13-.52,.23-.13,.32-.25,.62-.35,.91l-.37-.1Zm3.49,1.05c-1.23,.26-2.01,.51-2.34,.74-.33,.23-.5,.59-.5,1.07,0,.33,.09,.59,.28,.78,.19,.2,.43,.29,.73,.29,.33,0,.65-.09,.95-.28,.3-.19,.59-.46,.86-.83v-1.79Z"/><path d="M75.56,25.88v.43c0,.35,.03,.56,.09,.64,.11,.14,.34,.28,.67,.41,.33,.13,.68,.2,1.03,.2,.45,0,.83-.12,1.11-.37,.29-.25,.43-.54,.43-.88,0-.27-.08-.49-.25-.65-.17-.16-.49-.29-.96-.39-.88-.18-1.46-.33-1.74-.46-.28-.13-.49-.31-.64-.53-.14-.22-.21-.49-.21-.8,0-.59,.21-1.06,.64-1.43,.43-.37,1.03-.55,1.81-.55,.62,0,1.24,.12,1.85,.37-.04,.3-.07,.8-.09,1.51h-.4c0-.39-.05-.64-.13-.77-.1-.16-.29-.31-.55-.44-.27-.13-.55-.2-.86-.2-.4,0-.72,.1-.96,.31-.24,.21-.36,.46-.36,.77s.09,.52,.28,.67c.19,.16,.71,.32,1.58,.49,.64,.13,1.05,.25,1.26,.36s.37,.28,.49,.5c.12,.23,.19,.48,.19,.77,0,.59-.25,1.11-.76,1.54-.51,.43-1.19,.65-2.04,.65-.54,0-1.15-.08-1.83-.25-.12-.03-.18-.08-.18-.14l.02-.09c.02-.07,.03-.18,.05-.35,.04-.43,.06-.76,.06-1v-.32h.4Z"/><path d="M81.3,25.88v.43c0,.35,.03,.56,.09,.64,.11,.14,.34,.28,.67,.41,.33,.13,.68,.2,1.03,.2,.45,0,.83-.12,1.11-.37,.29-.25,.43-.54,.43-.88,0-.27-.08-.49-.25-.65-.17-.16-.49-.29-.96-.39-.88-.18-1.46-.33-1.74-.46-.28-.13-.49-.31-.64-.53-.14-.22-.21-.49-.21-.8,0-.59,.21-1.06,.64-1.43,.43-.37,1.03-.55,1.81-.55,.62,0,1.24,.12,1.85,.37-.04,.3-.07,.8-.09,1.51h-.4c0-.39-.05-.64-.13-.77-.1-.16-.29-.31-.55-.44-.27-.13-.55-.2-.86-.2-.4,0-.72,.1-.96,.31-.24,.21-.36,.46-.36,.77s.09,.52,.28,.67c.19,.16,.71,.32,1.58,.49,.64,.13,1.05,.25,1.26,.36s.37,.28,.49,.5c.12,.23,.19,.48,.19,.77,0,.59-.25,1.11-.76,1.54-.51,.43-1.19,.65-2.04,.65-.54,0-1.15-.08-1.83-.25-.12-.03-.18-.08-.18-.14l.02-.09c.02-.07,.03-.18,.05-.35,.04-.43,.06-.76,.06-1v-.32h.4Z"/><path d="M86.82,22.53v-.92h6.66v.92h-6.66Zm0,2.26v-.92h6.66v.92h-6.66Z"/><path d="M95.46,22.36l-.19-2.97c-.01-.18-.02-.32-.02-.43,0-.19,.04-.34,.13-.45,.09-.1,.19-.16,.31-.16s.23,.05,.32,.15c.08,.1,.13,.25,.13,.46,0,.1,0,.24-.01,.42l-.2,2.97c-.01,.19-.09,.28-.24,.28-.14,0-.21-.09-.23-.28Zm2.16,0l-.2-2.97c-.01-.18-.02-.32-.02-.43,0-.19,.04-.34,.13-.45,.09-.1,.19-.16,.31-.16s.23,.05,.32,.15,.13,.25,.13,.46c0,.1,0,.24-.02,.42l-.19,2.97c-.01,.19-.09,.28-.24,.28s-.22-.09-.23-.28Z"/><path d="M100.29,25.88v.43c0,.35,.03,.56,.09,.64,.11,.14,.34,.28,.67,.41,.33,.13,.68,.2,1.03,.2,.45,0,.83-.12,1.11-.37,.29-.25,.43-.54,.43-.88,0-.27-.08-.49-.25-.65-.17-.16-.49-.29-.96-.39-.88-.18-1.46-.33-1.74-.46-.28-.13-.49-.31-.64-.53-.14-.22-.21-.49-.21-.8,0-.59,.21-1.06,.64-1.43,.43-.37,1.03-.55,1.81-.55,.62,0,1.24,.12,1.85,.37-.04,.3-.07,.8-.09,1.51h-.4c0-.39-.05-.64-.13-.77-.1-.16-.29-.31-.55-.44-.27-.13-.55-.2-.86-.2-.4,0-.72,.1-.96,.31-.24,.21-.36,.46-.36,.77s.09,.52,.28,.67c.19,.16,.71,.32,1.58,.49,.64,.13,1.05,.25,1.26,.36s.37,.28,.49,.5c.12,.23,.19,.48,.19,.77,0,.59-.25,1.11-.76,1.54-.51,.43-1.19,.65-2.04,.65-.54,0-1.15-.08-1.83-.25-.12-.03-.18-.08-.18-.14l.02-.09c.02-.07,.03-.18,.05-.35,.04-.43,.06-.76,.06-1v-.32h.4Z"/><path d="M105.51,24.73c0-.61,.14-1.16,.42-1.65,.28-.49,.68-.88,1.19-1.16,.51-.28,1.09-.42,1.74-.42,.94,0,1.69,.28,2.26,.83s.85,1.3,.85,2.22c0,1.09-.37,1.96-1.1,2.61-.66,.58-1.45,.87-2.36,.87s-1.6-.3-2.15-.89c-.55-.59-.83-1.4-.83-2.42Zm1.24-.47c0,.91,.19,1.69,.56,2.34,.37,.65,.91,.97,1.61,.97,.53,0,.96-.2,1.29-.61,.33-.41,.49-1.02,.49-1.85,0-.67-.1-1.25-.29-1.73-.19-.49-.45-.84-.77-1.07-.32-.22-.67-.33-1.07-.33-.35,0-.66,.09-.94,.27s-.49,.41-.62,.71c-.18,.4-.27,.84-.27,1.31Z"/><path d="M117.79,26.97l.18,.16-.27,.42c-.3,.16-.61,.29-.93,.37-.32,.08-.64,.12-.97,.12-.65,0-1.2-.12-1.65-.37s-.8-.6-1.05-1.07-.37-1.02-.37-1.67c0-.57,.09-1.06,.28-1.49,.19-.42,.46-.75,.8-.99s.77-.47,1.28-.7c.36-.16,.77-.25,1.21-.25,.34,0,.63,.03,.88,.08s.51,.15,.79,.3c-.11,.58-.17,1.17-.18,1.75h-.42v-.33c0-.28-.04-.48-.12-.6s-.27-.23-.56-.35c-.29-.11-.61-.17-.95-.17-.6,0-1.05,.18-1.38,.55-.32,.36-.48,.91-.48,1.63,0,.93,.24,1.67,.71,2.23,.43,.51,.98,.76,1.65,.76,.26,0,.52-.03,.78-.1,.26-.07,.51-.16,.76-.29Z"/><path d="M120.95,21.48l.16,.1c-.03,.33-.05,.69-.06,1.09-.03,1.29-.05,2.24-.05,2.85,0,.57,.02,1.06,.06,1.47,.02,.16,.06,.27,.13,.33,.07,.06,.23,.11,.48,.14l.45,.06v.38c-.64-.03-1.23-.05-1.76-.05s-1.05,.02-1.58,.05v-.38l.57-.06c.22-.02,.36-.06,.41-.12,.05-.06,.08-.28,.1-.64,.02-.56,.03-1.34,.03-2.32,0-.69-.01-1.21-.03-1.59,0-.14-.05-.23-.12-.29s-.22-.09-.46-.09h-.5v-.38c.54-.08,.93-.15,1.19-.21,.25-.07,.58-.18,.98-.33Zm-.53-2.93c.2,0,.38,.07,.52,.22,.15,.15,.22,.33,.22,.53s-.07,.38-.22,.53c-.15,.15-.32,.22-.52,.22s-.38-.07-.53-.22c-.15-.15-.22-.32-.22-.53s.07-.38,.22-.53c.15-.15,.32-.22,.53-.22Z"/><path d="M123.34,23.31v-.9l.72-.41c.33-.19,.61-.31,.86-.38,.24-.07,.51-.11,.78-.11,.61,0,1.1,.14,1.47,.41,.37,.27,.6,.62,.67,1.04,.05,.32,.09,1.1,.1,2.36,0,1.19,.04,1.84,.08,1.96,.04,.12,.15,.18,.33,.18h.52v.44c-.5-.03-.85-.05-1.05-.05-.25,0-.58,.02-.99,.05v-.59c0-.19,0-.38,0-.58l-1.37,1.04c-.12,.09-.25,.16-.36,.19-.12,.04-.28,.06-.5,.06-.57,0-1-.14-1.3-.42-.3-.28-.45-.66-.45-1.13,0-.45,.11-.83,.32-1.17,.21-.33,.52-.58,.91-.74,.4-.16,1.31-.37,2.75-.62,0-.56-.13-.98-.37-1.26-.3-.35-.73-.52-1.28-.52-.21,0-.41,.03-.6,.08-.19,.05-.36,.13-.52,.23-.13,.32-.25,.62-.35,.91l-.37-.1Zm3.49,1.05c-1.23,.26-2.01,.51-2.34,.74-.33,.23-.5,.59-.5,1.07,0,.33,.09,.59,.28,.78,.19,.2,.43,.29,.73,.29,.33,0,.65-.09,.95-.28,.3-.19,.59-.46,.86-.83v-1.79Z"/><path d="M131.81,18.08c-.08,1.29-.11,2.46-.11,3.51v3.4c0,1.35,.03,2.12,.09,2.3,.03,.09,.18,.15,.44,.18l.56,.06v.38c-.48-.03-.94-.05-1.38-.05-.49,0-1.12,.02-1.91,.05v-.38l.57-.05c.25-.02,.39-.09,.43-.19,.06-.17,.09-.96,.09-2.35v-4.65l-.03-.87c0-.22-.02-.35-.07-.4-.07-.07-.22-.11-.44-.11h-.54v-.4c.92-.08,1.65-.26,2.2-.52l.11,.08Z"/><path d="M133.48,25.22l-.09-.09c.13-.33,.24-.66,.34-.96,.64,.03,1.18,.05,1.61,.05,.35,0,1-.02,1.95-.05l.05,.1c-.15,.33-.25,.65-.32,.95-.6-.04-1.16-.06-1.67-.06-.57,0-1.19,.02-1.87,.06Z"/><path d="M140.17,22.69l.89-.79c.14-.13,.29-.22,.45-.27,.23-.08,.46-.12,.68-.12,.5,0,.9,.09,1.2,.27s.58,.5,.83,.96l.86-.78c.15-.13,.32-.23,.54-.3,.28-.1,.55-.15,.81-.15,.4,0,.76,.09,1.08,.28s.56,.43,.72,.72,.24,.7,.24,1.21l-.03,2.59c0,.58,.03,.92,.1,1.02,.07,.1,.24,.16,.51,.18l.49,.02v.38h-.32c-.51-.04-.86-.05-1.04-.05-.28,0-.6,.02-.98,.05,.06-.82,.09-1.77,.09-2.86,0-.92-.04-1.53-.12-1.82s-.23-.52-.46-.68c-.22-.17-.51-.25-.85-.25-.38,0-.71,.1-.98,.31-.27,.21-.44,.46-.51,.75-.04,.18-.07,.97-.07,2.36,0,.82,0,1.28,.02,1.4s.05,.19,.11,.24,.25,.09,.57,.12l.44,.05v.38c-.78-.03-1.35-.05-1.72-.05-.29,0-.86,.02-1.69,.05v-.38h.44c.26,0,.44-.04,.52-.11,.08-.08,.13-.25,.14-.53,.04-.72,.05-1.48,.05-2.27,0-.7-.05-1.19-.14-1.45s-.26-.48-.48-.63c-.23-.15-.5-.23-.82-.23-.34,0-.65,.09-.93,.28-.28,.19-.47,.42-.57,.69-.07,.19-.1,.71-.1,1.58,0,.95,0,1.65,.03,2.09,0,.21,.04,.34,.1,.4,.06,.06,.25,.1,.57,.13l.46,.05v.38c-.55-.03-1.07-.05-1.56-.05-.56,0-1.16,.02-1.81,.05v-.38h.5c.29,0,.46-.08,.52-.23,.06-.15,.09-.98,.09-2.49,0-1.11,0-1.76-.02-1.96s-.05-.33-.11-.38c-.06-.05-.25-.08-.56-.08h-.41v-.36c.65-.09,1.21-.21,1.67-.36l.48-.19c.08,0,.12,.05,.12,.16v.24c-.03,.24-.03,.52-.03,.82Z"/><path d="M151.23,24.7c.02,.87,.25,1.53,.67,1.98,.42,.45,.98,.67,1.67,.67,.31,0,.61-.05,.92-.15,.3-.1,.61-.25,.91-.46l.11,.1-.21,.56c-.37,.21-.74,.37-1.13,.48-.39,.11-.79,.16-1.2,.16-.9,0-1.62-.28-2.17-.85-.55-.57-.82-1.34-.82-2.31,0-.74,.15-1.38,.46-1.93,.2-.36,.58-.69,1.13-.99,.55-.3,1.08-.46,1.59-.46,.78,0,1.4,.23,1.86,.69,.46,.46,.68,1.1,.68,1.93v.39c-.3,.07-.58,.12-.85,.14-.47,.04-1.12,.05-1.96,.05h-1.65Zm.01-.5c.68,.03,1.44,.05,2.26,.05,.33,0,.65-.02,.96-.05v-.37c0-.39-.08-.76-.23-1.11-.1-.22-.27-.4-.51-.54-.24-.14-.52-.21-.84-.21-.49,0-.89,.18-1.19,.54-.29,.36-.45,.92-.46,1.69Z"/><path d="M161.73,21.91v-2.4c0-.28-.03-.45-.09-.52-.06-.07-.2-.11-.42-.11h-.57v-.4c.79-.05,1.52-.21,2.2-.48l.12,.08c-.03,.45-.06,.99-.08,1.63l-.03,1.76v4.52c-.01,.74,0,1.15,.05,1.23,.07,.12,.25,.2,.55,.24l.47,.06v.38c-.54-.04-1.02-.06-1.44-.06-.08,0-.35,.02-.84,.06,.03-.3,.06-.72,.07-1.27-.38,.29-.85,.7-1.43,1.22-.37,.12-.71,.18-.99,.18-.74,0-1.37-.28-1.87-.84-.5-.56-.75-1.31-.75-2.25,0-.59,.1-1.09,.29-1.5,.19-.42,.43-.72,.7-.9,.27-.19,.69-.42,1.26-.71,.44-.22,.84-.32,1.21-.32,.25,0,.51,.03,.78,.1s.54,.17,.82,.3Zm0,1.14c-.3-.33-.62-.57-.95-.74-.33-.16-.67-.25-1.03-.25-.58,0-1.04,.21-1.39,.63-.35,.42-.53,1.04-.53,1.85s.2,1.47,.6,1.94c.4,.47,.89,.71,1.47,.71,.35,0,.68-.1,.97-.29s.51-.45,.65-.77c.14-.31,.21-.81,.21-1.48v-1.62Z"/><path d="M166.87,21.48l.16,.1c-.03,.33-.05,.69-.06,1.09-.03,1.29-.05,2.24-.05,2.85,0,.57,.02,1.06,.06,1.47,.02,.16,.06,.27,.13,.33,.07,.06,.22,.11,.48,.14l.45,.06v.38c-.64-.03-1.23-.05-1.76-.05s-1.05,.02-1.58,.05v-.38l.57-.06c.22-.02,.36-.06,.41-.12,.05-.06,.08-.28,.1-.64,.02-.56,.03-1.34,.03-2.32,0-.69-.01-1.21-.03-1.59,0-.14-.05-.23-.12-.29s-.22-.09-.46-.09h-.5v-.38c.54-.08,.93-.15,1.19-.21,.25-.07,.58-.18,.98-.33Zm-.53-2.93c.2,0,.38,.07,.52,.22,.15,.15,.22,.33,.22,.53s-.07,.38-.22,.53c-.14,.15-.32,.22-.52,.22s-.38-.07-.53-.22c-.15-.15-.22-.32-.22-.53s.07-.38,.22-.53c.15-.15,.32-.22,.53-.22Z"/><path d="M169.25,23.31v-.9l.72-.41c.33-.19,.61-.31,.86-.38,.24-.07,.51-.11,.78-.11,.61,0,1.1,.14,1.47,.41s.6,.62,.67,1.04c.05,.32,.09,1.1,.1,2.36,0,1.19,.04,1.84,.08,1.96,.04,.12,.16,.18,.33,.18h.52v.44c-.5-.03-.85-.05-1.05-.05-.25,0-.58,.02-.99,.05v-.59c0-.19,0-.38,0-.58l-1.37,1.04c-.12,.09-.25,.16-.36,.19-.12,.04-.28,.06-.5,.06-.57,0-1-.14-1.3-.42-.3-.28-.45-.66-.45-1.13,0-.45,.11-.83,.32-1.17,.21-.33,.52-.58,.91-.74,.4-.16,1.31-.37,2.75-.62,0-.56-.13-.98-.37-1.26-.3-.35-.73-.52-1.28-.52-.21,0-.41,.03-.6,.08s-.36,.13-.52,.23c-.13,.32-.25,.62-.35,.91l-.37-.1Zm3.49,1.05c-1.23,.26-2,.51-2.34,.74-.33,.23-.5,.59-.5,1.07,0,.33,.09,.59,.29,.78,.19,.2,.43,.29,.73,.29,.33,0,.65-.09,.95-.28,.3-.19,.59-.46,.86-.83v-1.79Z"/><path d="M176.29,22.36l-.19-2.97c-.01-.18-.02-.32-.02-.43,0-.19,.04-.34,.13-.45,.09-.1,.19-.16,.31-.16s.23,.05,.32,.15c.08,.1,.12,.25,.12,.46,0,.1,0,.24-.01,.42l-.2,2.97c-.01,.19-.09,.28-.24,.28s-.21-.09-.23-.28Zm2.16,0l-.2-2.97c-.01-.18-.02-.32-.02-.43,0-.19,.04-.34,.13-.45,.09-.1,.19-.16,.31-.16s.23,.05,.32,.15,.13,.25,.13,.46c0,.1,0,.24-.02,.42l-.19,2.97c-.01,.19-.09,.28-.24,.28s-.22-.09-.23-.28Z"/><path d="M180.89,25.63l5.31-2.44-5.31-2.43v-1.01l6.67,3.03v.83l-6.67,3.03v-1.01Z"/><path d="M30.38,43.63v1.01l-6.66-3.03v-.83l6.66-3.03v1.01l-5.31,2.43,5.31,2.44Z"/><path d="M31.64,48.76c.17-.34,.31-.67,.44-.97l4.52-10.89c.14-.33,.24-.63,.31-.89,.29,.04,.51,.05,.66,.05h.38c-.17,.32-.31,.62-.41,.87l-4.62,11.03c-.12,.28-.22,.54-.3,.8l-.48-.03c-.11,0-.28,.01-.5,.03Z"/><path d="M45.02,39.91v-2.4c0-.28-.03-.45-.09-.52-.06-.07-.2-.11-.42-.11h-.57v-.4c.79-.05,1.52-.21,2.2-.48l.12,.08c-.03,.45-.06,.99-.08,1.63l-.03,1.76v4.52c-.01,.74,0,1.15,.05,1.23,.07,.12,.25,.2,.55,.24l.47,.06v.38c-.54-.04-1.02-.06-1.44-.06-.08,0-.35,.02-.84,.06,.03-.3,.06-.72,.07-1.27-.38,.29-.85,.7-1.43,1.22-.37,.12-.71,.18-.99,.18-.74,0-1.37-.28-1.87-.84-.5-.56-.75-1.31-.75-2.25,0-.59,.1-1.09,.29-1.5,.19-.42,.43-.72,.69-.9,.27-.19,.69-.42,1.26-.71,.44-.22,.84-.32,1.21-.32,.25,0,.51,.03,.78,.1s.54,.17,.82,.3Zm0,1.14c-.3-.33-.62-.57-.95-.74-.33-.16-.67-.25-1.03-.25-.58,0-1.04,.21-1.39,.63-.35,.42-.53,1.04-.53,1.85s.2,1.47,.6,1.94c.4,.47,.89,.71,1.47,.71,.35,0,.68-.1,.97-.29s.51-.45,.65-.77c.14-.31,.21-.81,.21-1.48v-1.62Z"/><path d="M50.16,39.48l.16,.1c-.03,.33-.05,.69-.06,1.09-.03,1.29-.05,2.24-.05,2.85,0,.57,.02,1.06,.06,1.47,.02,.16,.06,.27,.13,.33,.07,.06,.23,.11,.48,.14l.45,.06v.38c-.64-.03-1.23-.05-1.76-.05s-1.05,.02-1.58,.05v-.38l.57-.06c.22-.02,.36-.06,.41-.12,.05-.06,.08-.28,.1-.64,.02-.56,.03-1.34,.03-2.32,0-.69-.01-1.21-.03-1.59,0-.14-.05-.23-.12-.29s-.22-.09-.46-.09h-.5v-.38c.54-.08,.93-.15,1.19-.21,.25-.07,.58-.18,.98-.33Zm-.53-2.93c.2,0,.38,.07,.52,.22,.15,.15,.22,.33,.22,.53s-.07,.38-.22,.53c-.15,.15-.32,.22-.52,.22s-.38-.07-.53-.22c-.15-.15-.22-.32-.22-.53s.07-.38,.22-.53c.15-.15,.32-.22,.53-.22Z"/><path d="M56.39,40.02v-.38c.45,.03,.86,.05,1.22,.05,.42,0,.86-.02,1.33-.05v.38h-.21c-.1,0-.2,.02-.3,.06-.07,.03-.13,.07-.17,.12s-.2,.36-.48,.92c-.5,1.03-.88,1.84-1.14,2.43s-.6,1.4-1.01,2.41h-.69c-.58-1.45-1.18-2.86-1.79-4.24-.23-.5-.36-.83-.41-.97-.1-.29-.21-.48-.33-.59-.12-.1-.28-.16-.47-.16h-.22v-.38c.65,.03,1.19,.05,1.62,.05,.46,0,.97-.02,1.52-.05v.38h-.29c-.27,0-.46,.03-.57,.09-.08,.04-.11,.11-.11,.2,0,.08,.04,.23,.12,.46,.08,.23,.61,1.56,1.6,4l1.19-2.86c.27-.66,.43-1.12,.5-1.38,.02-.07,.03-.13,.03-.18,0-.08-.03-.15-.09-.19-.06-.04-.21-.07-.44-.1l-.42-.05Z"/><path d="M60.03,43.63l5.31-2.44-5.31-2.43v-1.01l6.66,3.03v.83l-6.66,3.03v-1.01Z"/><path d="M6.66,61.63v1.01l-6.66-3.03v-.83l6.66-3.03v1.01l-5.31,2.43,5.31,2.44Z"/><path d="M7.92,66.76c.17-.34,.31-.67,.44-.97l4.52-10.89c.14-.33,.24-.63,.31-.89,.29,.04,.51,.05,.66,.05h.38c-.17,.32-.31,.62-.41,.87l-4.62,11.03c-.12,.28-.22,.54-.3,.8l-.48-.03c-.11,0-.28,.01-.5,.03Z"/><path d="M18.1,58.66v2.58c0,1.24,.04,1.93,.11,2.07s.29,.22,.67,.22h.58v.38c-.73-.03-1.24-.05-1.56-.05l-2.1,.05v-.38h.44c.34,0,.55-.07,.61-.21,.08-.18,.13-.88,.13-2.08v-2.58l-.95,.06v-.28c.31-.15,.63-.31,.95-.49v-.84c0-.43,.06-.78,.18-1.05s.35-.59,.71-.95c.47-.49,.83-.81,1.09-.96,.17-.1,.39-.15,.65-.15,.17,0,.36,.03,.58,.09-.01,.23-.02,.41-.02,.54s0,.32,.02,.56l-.17,.07c-.26-.23-.56-.34-.89-.34-.37,0-.63,.13-.79,.38-.16,.25-.23,.87-.23,1.84v.88c.71,0,1.3-.03,1.75-.07l.05,.07-.11,.63-.81-.02c-.2,0-.49,0-.88,.02Z"/><path d="M20.64,60.73c0-.61,.14-1.16,.42-1.65,.28-.49,.68-.88,1.19-1.16,.51-.28,1.09-.42,1.74-.42,.94,0,1.69,.28,2.26,.83s.85,1.3,.85,2.22c0,1.09-.37,1.96-1.1,2.61-.66,.58-1.45,.87-2.36,.87s-1.6-.3-2.15-.89c-.55-.59-.83-1.4-.83-2.42Zm1.24-.47c0,.91,.19,1.69,.56,2.34,.37,.65,.91,.97,1.61,.97,.53,0,.96-.2,1.29-.61,.33-.41,.49-1.02,.49-1.85,0-.67-.1-1.25-.29-1.73-.19-.49-.45-.84-.77-1.07-.32-.22-.67-.33-1.07-.33-.35,0-.66,.09-.94,.27s-.49,.41-.62,.71c-.18,.4-.27,.84-.27,1.31Z"/><path d="M28.04,60.73c0-.61,.14-1.16,.42-1.65,.28-.49,.68-.88,1.19-1.16,.51-.28,1.09-.42,1.74-.42,.94,0,1.69,.28,2.26,.83s.85,1.3,.85,2.22c0,1.09-.37,1.96-1.1,2.61-.66,.58-1.45,.87-2.36,.87s-1.6-.3-2.15-.89c-.55-.59-.83-1.4-.83-2.42Zm1.24-.47c0,.91,.19,1.69,.56,2.34,.37,.65,.91,.97,1.61,.97,.53,0,.96-.2,1.29-.61,.33-.41,.49-1.02,.49-1.85,0-.67-.1-1.25-.29-1.73-.19-.49-.45-.84-.77-1.07-.32-.22-.67-.33-1.07-.33-.35,0-.66,.09-.94,.27s-.49,.41-.62,.71c-.18,.4-.27,.84-.27,1.31Z"/><path d="M37.43,58.71v2.6c0,.68,.02,1.11,.07,1.3,.04,.19,.13,.34,.27,.44,.13,.11,.31,.16,.51,.16,.13,0,.25-.03,.37-.08,.12-.05,.24-.13,.36-.23l.19,.23-.65,.76c-.14,.05-.28,.09-.41,.11-.13,.03-.26,.04-.39,.04-.33,0-.6-.06-.83-.18-.23-.12-.39-.27-.49-.46s-.15-.47-.15-.85l.03-1.28v-2.51c-.34,0-.69,.02-1.05,.05v-.28c.38-.15,.73-.3,1.05-.46,0-.63-.02-1.31-.05-2.05,.51-.22,.88-.39,1.11-.52l.17,.13c-.04,.34-.07,1.16-.11,2.44,.54,0,.98,0,1.32-.02l.53-.03-.07,.68h-1.77Z"/><path d="M41.03,60.7c.02,.87,.24,1.53,.67,1.98s.98,.67,1.67,.67c.31,0,.61-.05,.92-.15,.3-.1,.61-.25,.91-.46l.11,.1-.21,.56c-.37,.21-.74,.37-1.13,.48-.39,.11-.79,.16-1.2,.16-.9,0-1.62-.28-2.17-.85-.55-.57-.82-1.34-.82-2.31,0-.74,.15-1.38,.46-1.93,.2-.36,.58-.69,1.13-.99,.55-.3,1.08-.46,1.59-.46,.78,0,1.4,.23,1.86,.69s.69,1.1,.69,1.93v.39c-.3,.07-.58,.12-.85,.14-.47,.04-1.13,.05-1.96,.05h-1.65Zm.01-.5c.68,.03,1.44,.05,2.26,.05,.33,0,.65-.02,.96-.05v-.37c0-.39-.08-.76-.23-1.11-.1-.22-.27-.4-.51-.54-.24-.14-.52-.21-.84-.21-.49,0-.89,.18-1.18,.54-.3,.36-.45,.92-.46,1.69Z"/><path d="M48.39,59.01c.18-.17,.37-.39,.58-.66,.25-.32,.48-.54,.69-.66,.21-.12,.44-.18,.67-.18s.43,.03,.56,.09c.06,.03,.09,.07,.09,.13v.07c-.08,.36-.12,.86-.13,1.5h-.3c-.1-.22-.22-.38-.36-.48s-.3-.14-.5-.14c-.26,0-.5,.09-.72,.26-.22,.18-.37,.42-.45,.74-.07,.32-.11,.94-.11,1.87,0,.61,.02,1.13,.07,1.55,.02,.15,.06,.25,.13,.29,.17,.09,.42,.14,.74,.14h.4v.38c-.68-.03-1.31-.05-1.92-.05s-1.17,.02-1.74,.05v-.38l.64-.05c.23-.02,.37-.06,.43-.13,.06-.07,.1-.28,.12-.64,.03-.64,.05-1.39,.05-2.26,0-1.06-.04-1.69-.13-1.87-.06-.12-.24-.18-.54-.18h-.56v-.38c.43-.05,.81-.11,1.15-.19s.63-.17,.89-.29c.06-.03,.11-.05,.15-.05,.05,0,.08,.01,.1,.04s.03,.09,.03,.18l-.03,1.32Z"/><path d="M52.01,61.63l5.31-2.44-5.31-2.43v-1.01l6.66,3.03v.83l-6.66,3.03v-1.01Z"/></svg>