<?xml version="1.0" ?><svg width="30px" height="30px" enable-background="new 0 0 48 48" viewBox="0 0 96 96" xmlns="http://www.w3.org/2000/svg"><title/><g data-name="Layer 2" id="Layer_2"><g data-name="Layer 2" id="Layer_2-2"><path d="M48,0A48,48,0,1,0,96,48,48,48,0,0,0,48,0ZM35.42,46.67V70.33H25V40.53H35.42ZM30.21,36.06a5.21,5.21,0,1,1,5.21-5.21A5.21,5.21,0,0,1,30.21,36.06ZM69.69,70.33H60.75V55.83c0-3.48-.36-7.92-5.15-7.92s-5.54,3.76-5.54,7.65V70.33H41.37V40.53h8.31v4h.14c1.26-2.39,4.28-4,8.75-4,7.62,0,10.2,3.51,10.89,9.16A34.87,34.87,0,0,1,69.69,54Z"/></g></g></svg>