<?xml version="1.0" encoding="utf-8"?>
<!-- Generator: Adobe Illustrator 26.0.2, SVG Export Plug-In . SVG Version: 6.00 Build 0)  -->
<svg version="1.1" id="Layer_1" xmlns="http://www.w3.org/2000/svg" xmlns:xlink="http://www.w3.org/1999/xlink" x="0px" y="0px"
	 viewBox="0 0 800 800" style="enable-background:new 0 0 800 800;" xml:space="preserve">
<style type="text/css">
	.st0{fill:#071013;}
	.st1{display:none;fill:#FFFFFF;enable-background:new    ;}
	.st2{font-family:'BebasNeue-Regular';}
	.st3{font-size:552.819px;}
	.st4{font-size:535.9166px;}
	.st5{enable-background:new    ;}
	.st6{fill:#FFFFFF;}
</style>
<g>
	<path class="st0" d="M680.9,44.1c0,0-108.1,64.9-179.5,168.2c0,0-75.2-32-221.8,1.9c0,0-69.5-107.1-181.4-170.1
		c0,0-285.7,704.9,293.2,721.8C391.4,765.9,959.1,797.9,680.9,44.1z"/>
</g>
<text transform="matrix(1 0 0 1 138.2778 659.7775)" class="st1 st2 st3">(S)</text>
<text transform="matrix(1 0 0 1 142.8821 652.5645)" class="st1 st2 st4">[S]</text>
<g class="st5">
	<path class="st6" d="M70.1,497v-43.7l180.8-78v47.3l-124.6,52.6l124.6,52.6v47.3L70.1,497z"/>
	<path class="st6" d="M320,660.9c-16.2-17.9-24.2-43.6-24.2-77.1v-23.6h61.4v28.4c0,26.8,11.2,40.2,33.7,40.2
		c11,0,19.4-3.2,25.1-9.7c5.7-6.5,8.6-17,8.6-31.6c0-17.3-3.9-32.6-11.8-45.8c-7.9-13.2-22.4-29-43.7-47.6
		c-26.8-23.6-45.5-45-56.1-64.1c-10.6-19.1-15.9-40.7-15.9-64.7c0-32.7,8.3-58,24.8-75.9c16.5-17.9,40.6-26.9,72.1-26.9
		c31.1,0,54.6,9,70.6,26.9c16,17.9,23.9,43.6,23.9,77.1v17.1h-61.4v-21.3c0-14.2-2.8-24.5-8.3-31c-5.5-6.5-13.6-9.7-24.2-9.7
		c-21.7,0-32.5,13.2-32.5,39.6c0,15,4,28.9,12.1,41.9c8.1,13,22.7,28.8,44,47.3c27.2,23.6,45.9,45.1,56.1,64.4
		c10.2,19.3,15.4,41.9,15.4,67.9c0,33.9-8.4,59.9-25.1,78c-16.7,18.1-41.1,27.2-73,27.2C360,687.8,336.1,678.8,320,660.9z"/>
	<path class="st6" d="M534.4,527.7l124.6-52.6l-124.6-52.6v-47.3l180.8,78V497l-180.8,78V527.7z"/>
</g>
</svg>
